<mxfile host="app.diagrams.net" modified="2021-06-26T00:29:14.783Z" agent="5.0 (Macintosh; Intel Mac OS X 10_14_3) AppleWebKit/537.36 (KHTML, like Gecko) Chrome/91.0.4472.114 Safari/537.36" etag="b72xYMszp-wqHNjz6T2o" version="14.7.7" type="github">
  <diagram id="3228e29e-7158-1315-38df-8450db1d8a1d" name="Page-1">
    <mxGraphModel dx="1351" dy="1197" grid="0" gridSize="10" guides="1" tooltips="1" connect="1" arrows="1" fold="1" page="1" pageScale="1" pageWidth="830" pageHeight="210" background="#EFF1F3" math="0" shadow="1">
      <root>
        <mxCell id="0" />
        <mxCell id="1" parent="0" />
        <mxCell id="Wi8p2_mBLNVyFIhDoAQK-28" value="" style="rounded=1;whiteSpace=wrap;html=1;fillColor=none;dashed=1;strokeWidth=5;arcSize=8;strokeColor=#4A919B;" parent="1" vertex="1">
          <mxGeometry x="120" y="135" width="848" height="386" as="geometry" />
        </mxCell>
        <mxCell id="T-5VQnCJckOgUX1Wp16H-51" value="" style="rounded=1;whiteSpace=wrap;html=1;fillColor=none;dashed=1;strokeWidth=5;arcSize=8;strokeColor=#535E80;dashPattern=1 1;" parent="1" vertex="1">
          <mxGeometry x="264" width="482" height="278" as="geometry" />
        </mxCell>
        <mxCell id="T-5VQnCJckOgUX1Wp16H-52" value="" style="rounded=1;whiteSpace=wrap;html=1;fillColor=none;dashed=1;strokeWidth=5;" parent="1" vertex="1">
          <mxGeometry x="1076" y="-94" width="447.56" height="380" as="geometry" />
        </mxCell>
        <mxCell id="_KJd5dzx4qh3lxpyMWcO-2" value="" style="fontColor=#0066CC;verticalAlign=top;verticalLabelPosition=bottom;labelPosition=center;align=center;html=1;outlineConnect=0;gradientColor=none;gradientDirection=north;strokeWidth=2;shape=mxgraph.networks.pc;fillColor=#67AB9F;fontSize=30;" parent="1" vertex="1">
          <mxGeometry x="157" y="364" width="119.15" height="75" as="geometry" />
        </mxCell>
        <mxCell id="fYc7Ru6buci-YKz5Eo-_-4" value="&lt;font style=&quot;font-size: 18px&quot;&gt;交换机&lt;/font&gt;" style="text;html=1;strokeColor=none;fillColor=none;align=center;verticalAlign=middle;whiteSpace=wrap;rounded=0;fontSize=30;" parent="1" vertex="1">
          <mxGeometry x="291" y="183" width="100" height="31" as="geometry" />
        </mxCell>
        <mxCell id="o6Qymi9LCWFlwB0xCJtG-19" value="目的IP" style="rounded=0;whiteSpace=wrap;html=1;strokeColor=#376B73;strokeWidth=2;fontSize=30;fillColor=#67AB9F;" parent="1" vertex="1">
          <mxGeometry x="196" y="-364" width="227" height="60" as="geometry" />
        </mxCell>
        <mxCell id="o6Qymi9LCWFlwB0xCJtG-20" value="子网掩码" style="rounded=0;whiteSpace=wrap;html=1;strokeColor=#376B73;strokeWidth=2;fontSize=30;fillColor=#67AB9F;" parent="1" vertex="1">
          <mxGeometry x="423" y="-364" width="206.35" height="60" as="geometry" />
        </mxCell>
        <mxCell id="o6Qymi9LCWFlwB0xCJtG-21" value="网关" style="rounded=0;whiteSpace=wrap;html=1;strokeColor=#376B73;strokeWidth=2;fontSize=30;fillColor=#67AB9F;" parent="1" vertex="1">
          <mxGeometry x="627.02" y="-364" width="150" height="60" as="geometry" />
        </mxCell>
        <mxCell id="o6Qymi9LCWFlwB0xCJtG-25" value="192.168.31.0" style="rounded=0;whiteSpace=wrap;html=1;strokeColor=#376B73;strokeWidth=2;fontSize=30;fillColor=#FFE599;" parent="1" vertex="1">
          <mxGeometry x="196" y="-304" width="227" height="60" as="geometry" />
        </mxCell>
        <mxCell id="o6Qymi9LCWFlwB0xCJtG-26" value="255.255.255.0" style="rounded=0;whiteSpace=wrap;html=1;strokeColor=#376B73;strokeWidth=2;fontSize=30;fillColor=#FFE599;" parent="1" vertex="1">
          <mxGeometry x="423" y="-304" width="206.35" height="60" as="geometry" />
        </mxCell>
        <mxCell id="o6Qymi9LCWFlwB0xCJtG-27" value="——" style="rounded=0;whiteSpace=wrap;html=1;strokeColor=#376B73;strokeWidth=2;fontSize=30;fillColor=#FFE599;" parent="1" vertex="1">
          <mxGeometry x="627.02" y="-304" width="150" height="60" as="geometry" />
        </mxCell>
        <mxCell id="o6Qymi9LCWFlwB0xCJtG-31" value="0.0.0.0" style="rounded=0;whiteSpace=wrap;html=1;strokeColor=#376B73;strokeWidth=2;fontSize=30;fillColor=#FFE599;" parent="1" vertex="1">
          <mxGeometry x="196" y="-244" width="227" height="60" as="geometry" />
        </mxCell>
        <mxCell id="o6Qymi9LCWFlwB0xCJtG-32" value="0.0.0.0" style="rounded=0;whiteSpace=wrap;html=1;strokeColor=#376B73;strokeWidth=2;fontSize=30;fillColor=#FFE599;" parent="1" vertex="1">
          <mxGeometry x="423" y="-244" width="206.35" height="60" as="geometry" />
        </mxCell>
        <mxCell id="o6Qymi9LCWFlwB0xCJtG-33" value="192.0.2.1" style="rounded=0;whiteSpace=wrap;html=1;strokeColor=#376B73;strokeWidth=2;fontSize=30;fillColor=#FFE599;" parent="1" vertex="1">
          <mxGeometry x="627.02" y="-244" width="150" height="60" as="geometry" />
        </mxCell>
        <mxCell id="T-5VQnCJckOgUX1Wp16H-40" style="edgeStyle=orthogonalEdgeStyle;rounded=0;orthogonalLoop=1;jettySize=auto;html=1;exitX=1;exitY=0.5;exitDx=0;exitDy=0;exitPerimeter=0;endArrow=none;endFill=0;strokeWidth=10;fillColor=#5A6EAB;fontSize=30;entryX=0;entryY=0.5;entryDx=0;entryDy=0;entryPerimeter=0;" parent="1" source="T-5VQnCJckOgUX1Wp16H-3" target="T-5VQnCJckOgUX1Wp16H-37" edge="1">
          <mxGeometry relative="1" as="geometry">
            <Array as="points">
              <mxPoint x="1067" y="72" />
              <mxPoint x="1067" y="72" />
            </Array>
          </mxGeometry>
        </mxCell>
        <mxCell id="T-5VQnCJckOgUX1Wp16H-3" value="" style="fontColor=#0066CC;verticalAlign=top;verticalLabelPosition=bottom;labelPosition=center;align=center;html=1;outlineConnect=0;gradientColor=none;gradientDirection=north;strokeWidth=1;shape=mxgraph.networks.router;fontSize=30;fillColor=#535E80;" parent="1" vertex="1">
          <mxGeometry x="597" y="50" width="133.33" height="40" as="geometry" />
        </mxCell>
        <mxCell id="Wi8p2_mBLNVyFIhDoAQK-7" style="edgeStyle=orthogonalEdgeStyle;rounded=0;orthogonalLoop=1;jettySize=auto;html=1;exitX=0.5;exitY=1;exitDx=0;exitDy=0;exitPerimeter=0;strokeWidth=8;endArrow=none;endFill=0;" parent="1" source="T-5VQnCJckOgUX1Wp16H-4" target="_KJd5dzx4qh3lxpyMWcO-2" edge="1">
          <mxGeometry relative="1" as="geometry">
            <Array as="points">
              <mxPoint x="376" y="322" />
              <mxPoint x="217" y="322" />
            </Array>
          </mxGeometry>
        </mxCell>
        <mxCell id="Wi8p2_mBLNVyFIhDoAQK-8" style="edgeStyle=orthogonalEdgeStyle;rounded=0;orthogonalLoop=1;jettySize=auto;html=1;exitX=0.5;exitY=1;exitDx=0;exitDy=0;exitPerimeter=0;strokeWidth=8;endArrow=none;endFill=0;" parent="1" source="T-5VQnCJckOgUX1Wp16H-4" target="Wi8p2_mBLNVyFIhDoAQK-10" edge="1">
          <mxGeometry relative="1" as="geometry">
            <mxPoint x="492.6666666666665" y="381" as="targetPoint" />
            <Array as="points">
              <mxPoint x="376" y="261" />
              <mxPoint x="376" y="322" />
              <mxPoint x="458" y="322" />
            </Array>
          </mxGeometry>
        </mxCell>
        <mxCell id="Wi8p2_mBLNVyFIhDoAQK-12" style="edgeStyle=orthogonalEdgeStyle;rounded=0;orthogonalLoop=1;jettySize=auto;html=1;exitX=0.5;exitY=0;exitDx=0;exitDy=0;exitPerimeter=0;fontSize=24;endArrow=none;endFill=0;strokeWidth=8;" parent="1" source="T-5VQnCJckOgUX1Wp16H-4" target="T-5VQnCJckOgUX1Wp16H-3" edge="1">
          <mxGeometry relative="1" as="geometry">
            <Array as="points">
              <mxPoint x="379" y="184" />
              <mxPoint x="568" y="184" />
              <mxPoint x="568" y="70" />
            </Array>
          </mxGeometry>
        </mxCell>
        <mxCell id="Wi8p2_mBLNVyFIhDoAQK-16" style="edgeStyle=orthogonalEdgeStyle;rounded=0;orthogonalLoop=1;jettySize=auto;html=1;exitX=1;exitY=0.5;exitDx=0;exitDy=0;exitPerimeter=0;entryX=0;entryY=0.5;entryDx=0;entryDy=0;entryPerimeter=0;fontSize=24;endArrow=none;endFill=0;strokeWidth=8;" parent="1" source="T-5VQnCJckOgUX1Wp16H-4" target="Wi8p2_mBLNVyFIhDoAQK-15" edge="1">
          <mxGeometry relative="1" as="geometry" />
        </mxCell>
        <mxCell id="T-5VQnCJckOgUX1Wp16H-4" value="" style="fontColor=#0066CC;verticalAlign=top;verticalLabelPosition=bottom;labelPosition=center;align=center;html=1;outlineConnect=0;gradientColor=none;gradientDirection=north;strokeWidth=1;shape=mxgraph.networks.switch;fillColor=#535E80;" parent="1" vertex="1">
          <mxGeometry x="312" y="220.5" width="133.33" height="40" as="geometry" />
        </mxCell>
        <mxCell id="T-5VQnCJckOgUX1Wp16H-5" value="&lt;font style=&quot;font-size: 18px&quot;&gt;路由器&lt;/font&gt;" style="text;html=1;strokeColor=none;fillColor=none;align=center;verticalAlign=middle;whiteSpace=wrap;rounded=0;fontSize=30;" parent="1" vertex="1">
          <mxGeometry x="606" y="13" width="100" height="31" as="geometry" />
        </mxCell>
        <mxCell id="T-5VQnCJckOgUX1Wp16H-27" value="&lt;font style=&quot;font-size: 22px&quot;&gt;&lt;font color=&quot;#4a919b&quot;&gt;192.168.31&lt;/font&gt;.6/24&lt;br style=&quot;font-size: 22px&quot;&gt;（我的电脑）&lt;/font&gt;" style="text;html=1;strokeColor=none;fillColor=none;align=center;verticalAlign=middle;rounded=0;fontSize=22;whiteSpace=wrap;" parent="1" vertex="1">
          <mxGeometry x="336" y="439" width="245.15" height="79" as="geometry" />
        </mxCell>
        <mxCell id="T-5VQnCJckOgUX1Wp16H-28" value="&lt;font style=&quot;font-size: 22px&quot;&gt;&lt;font style=&quot;font-size: 22px&quot;&gt;&lt;font color=&quot;#4a919b&quot;&gt;192.168.31&lt;/font&gt;.2&lt;/font&gt;/24&lt;/font&gt;" style="text;html=1;strokeColor=none;fillColor=none;align=center;verticalAlign=middle;whiteSpace=wrap;rounded=0;fontSize=22;" parent="1" vertex="1">
          <mxGeometry x="133" y="458" width="179" height="20" as="geometry" />
        </mxCell>
        <mxCell id="T-5VQnCJckOgUX1Wp16H-35" value="&lt;font style=&quot;font-size: 24px;&quot;&gt;e1:&lt;/font&gt;&lt;span style=&quot;font-size: 24px;&quot;&gt;192.0.2.2/24&lt;/span&gt;" style="text;html=1;strokeColor=none;fillColor=none;align=center;verticalAlign=middle;whiteSpace=wrap;rounded=0;fontSize=24;" parent="1" vertex="1">
          <mxGeometry x="756" y="38" width="186.67" height="20" as="geometry" />
        </mxCell>
        <mxCell id="T-5VQnCJckOgUX1Wp16H-36" value="&lt;font style=&quot;font-size: 24px&quot;&gt;&lt;font color=&quot;#4a919b&quot;&gt;192.168.31&lt;/font&gt;.1/24&amp;nbsp;&amp;nbsp;&lt;/font&gt;&lt;span style=&quot;font-size: 24px&quot;&gt;e2:&lt;/span&gt;" style="text;html=1;strokeColor=none;fillColor=none;align=center;verticalAlign=middle;whiteSpace=wrap;rounded=0;fontSize=30;" parent="1" vertex="1">
          <mxGeometry x="326" y="32.5" width="303.15" height="35" as="geometry" />
        </mxCell>
        <mxCell id="T-5VQnCJckOgUX1Wp16H-43" style="edgeStyle=orthogonalEdgeStyle;rounded=0;orthogonalLoop=1;jettySize=auto;html=1;exitX=1;exitY=0.5;exitDx=0;exitDy=0;exitPerimeter=0;endArrow=none;endFill=0;strokeColor=#000000;strokeWidth=10;fillColor=#5A6EAB;" parent="1" source="T-5VQnCJckOgUX1Wp16H-37" target="T-5VQnCJckOgUX1Wp16H-42" edge="1">
          <mxGeometry relative="1" as="geometry">
            <Array as="points">
              <mxPoint x="1326" y="74" />
              <mxPoint x="1326" y="74" />
            </Array>
          </mxGeometry>
        </mxCell>
        <mxCell id="T-5VQnCJckOgUX1Wp16H-37" value="" style="fontColor=#0066CC;verticalAlign=top;verticalLabelPosition=bottom;labelPosition=center;align=center;html=1;outlineConnect=0;gradientColor=none;gradientDirection=north;strokeWidth=2;shape=mxgraph.networks.router;fillColor=#535E80;" parent="1" vertex="1">
          <mxGeometry x="1122" y="54" width="133.33" height="40" as="geometry" />
        </mxCell>
        <mxCell id="T-5VQnCJckOgUX1Wp16H-38" value="&lt;span style=&quot;font-size: 30px&quot;&gt;其他路由器&lt;/span&gt;" style="text;html=1;strokeColor=none;fillColor=none;align=center;verticalAlign=middle;whiteSpace=wrap;rounded=0;fontSize=30;" parent="1" vertex="1">
          <mxGeometry x="1101" y="118" width="160" height="26" as="geometry" />
        </mxCell>
        <mxCell id="T-5VQnCJckOgUX1Wp16H-41" value="&lt;font style=&quot;font-size: 24px;&quot;&gt;f2:&amp;nbsp;&lt;/font&gt;&lt;span style=&quot;font-size: 24px;&quot;&gt;192.0.2.1/24&lt;/span&gt;" style="text;html=1;strokeColor=none;fillColor=none;align=center;verticalAlign=middle;whiteSpace=wrap;rounded=0;fontSize=24;" parent="1" vertex="1">
          <mxGeometry x="1085" y="29" width="186.67" height="20" as="geometry" />
        </mxCell>
        <mxCell id="T-5VQnCJckOgUX1Wp16H-42" value="&lt;font style=&quot;font-size: 30px&quot; color=&quot;#000000&quot;&gt;互联网&lt;/font&gt;" style="html=1;outlineConnect=0;gradientColor=none;gradientDirection=north;strokeWidth=2;shape=mxgraph.networks.cloud;fontColor=#ffffff;strokeColor=none;fillColor=#CCCCCC;" parent="1" vertex="1">
          <mxGeometry x="1314" y="-5" width="186.66" height="110" as="geometry" />
        </mxCell>
        <mxCell id="T-5VQnCJckOgUX1Wp16H-44" value="出口" style="rounded=0;whiteSpace=wrap;html=1;strokeColor=#376B73;strokeWidth=2;fontSize=30;fillColor=#67AB9F;" parent="1" vertex="1">
          <mxGeometry x="777.02" y="-364" width="150" height="60" as="geometry" />
        </mxCell>
        <mxCell id="T-5VQnCJckOgUX1Wp16H-46" value="e2" style="rounded=0;whiteSpace=wrap;html=1;strokeColor=#376B73;strokeWidth=2;fontSize=30;fillColor=#FFE599;" parent="1" vertex="1">
          <mxGeometry x="777.02" y="-304" width="150" height="60" as="geometry" />
        </mxCell>
        <mxCell id="T-5VQnCJckOgUX1Wp16H-48" value="e1" style="rounded=0;whiteSpace=wrap;html=1;strokeColor=#376B73;strokeWidth=2;fontSize=30;fillColor=#FFE599;" parent="1" vertex="1">
          <mxGeometry x="777.02" y="-244" width="150" height="60" as="geometry" />
        </mxCell>
        <mxCell id="T-5VQnCJckOgUX1Wp16H-49" value="" style="shape=flexArrow;endArrow=classic;html=1;strokeWidth=10;endWidth=70;endSize=12;width=28;fillColor=#535E80;strokeColor=#535E80;" parent="1" edge="1">
          <mxGeometry width="50" height="50" relative="1" as="geometry">
            <mxPoint x="652.83" y="-32" as="sourcePoint" />
            <mxPoint x="652.5" y="-152" as="targetPoint" />
          </mxGeometry>
        </mxCell>
        <mxCell id="T-5VQnCJckOgUX1Wp16H-55" value="&lt;font style=&quot;font-size: 40px&quot;&gt;&lt;font color=&quot;#4a919b&quot;&gt;192.168.31&lt;/font&gt;.0 局域网&lt;/font&gt;" style="text;html=1;strokeColor=none;fillColor=none;align=center;verticalAlign=middle;whiteSpace=wrap;rounded=0;fontSize=30;" parent="1" vertex="1">
          <mxGeometry x="376" y="563" width="370" height="20" as="geometry" />
        </mxCell>
        <mxCell id="Wi8p2_mBLNVyFIhDoAQK-10" value="" style="fontColor=#0066CC;verticalAlign=top;verticalLabelPosition=bottom;labelPosition=center;align=center;html=1;outlineConnect=0;gradientColor=none;gradientDirection=north;strokeWidth=2;shape=mxgraph.networks.pc;fillColor=#67AB9F;fontSize=30;" parent="1" vertex="1">
          <mxGeometry x="393" y="365" width="119.15" height="75" as="geometry" />
        </mxCell>
        <mxCell id="Wi8p2_mBLNVyFIhDoAQK-15" value="" style="shape=mxgraph.cisco.wireless.wireless_transport;html=1;pointerEvents=1;dashed=0;strokeWidth=2;verticalLabelPosition=bottom;verticalAlign=top;align=center;outlineConnect=0;fontSize=24;fontColor=#535E80;fillColor=#535E80;" parent="1" vertex="1">
          <mxGeometry x="577.49" y="214" width="77" height="54" as="geometry" />
        </mxCell>
        <mxCell id="Wi8p2_mBLNVyFIhDoAQK-18" value="" style="points=[[0.005,0.09,0],[0.08,0,0],[0.76,0.25,0],[1,0.92,0],[0.91,0.995,0],[0.57,0.995,0],[0.045,0.955,0],[0.005,0.43,0]];verticalLabelPosition=bottom;html=1;verticalAlign=top;aspect=fixed;align=center;pointerEvents=1;shape=mxgraph.cisco19.3g_4g_indicator;fillColor=#005073;strokeColor=none;fontSize=24;rotation=105;" parent="1" vertex="1">
          <mxGeometry x="654.49" y="291" width="50" height="50" as="geometry" />
        </mxCell>
        <mxCell id="Wi8p2_mBLNVyFIhDoAQK-19" value="" style="fontColor=#0066CC;verticalAlign=top;verticalLabelPosition=bottom;labelPosition=center;align=center;html=1;outlineConnect=0;gradientColor=none;gradientDirection=north;strokeWidth=2;shape=mxgraph.networks.mobile;fontSize=24;fillColor=#4A919B;" parent="1" vertex="1">
          <mxGeometry x="655" y="367" width="39" height="69" as="geometry" />
        </mxCell>
        <mxCell id="Wi8p2_mBLNVyFIhDoAQK-20" value="" style="fontColor=#0066CC;verticalAlign=top;verticalLabelPosition=bottom;labelPosition=center;align=center;html=1;outlineConnect=0;gradientColor=none;gradientDirection=north;strokeWidth=2;shape=mxgraph.networks.laptop;fontSize=24;fillColor=#4A919B;" parent="1" vertex="1">
          <mxGeometry x="823" y="375" width="100" height="55" as="geometry" />
        </mxCell>
        <mxCell id="Wi8p2_mBLNVyFIhDoAQK-21" value="&lt;font style=&quot;font-size: 22px&quot;&gt;&lt;font color=&quot;#4a919b&quot;&gt;192.168.31&lt;/font&gt;.3/24&lt;br&gt;&lt;/font&gt;" style="text;html=1;strokeColor=none;fillColor=none;align=center;verticalAlign=middle;whiteSpace=wrap;rounded=0;fontSize=22;" parent="1" vertex="1">
          <mxGeometry x="580.96" y="444" width="187.08" height="48" as="geometry" />
        </mxCell>
        <mxCell id="Wi8p2_mBLNVyFIhDoAQK-22" value="&lt;font style=&quot;font-size: 22px&quot;&gt;&lt;font color=&quot;#4a919b&quot;&gt;192.168.31&lt;/font&gt;.4/24&lt;br&gt;&lt;/font&gt;" style="text;html=1;strokeColor=none;fillColor=none;align=center;verticalAlign=middle;whiteSpace=wrap;rounded=0;fontSize=22;" parent="1" vertex="1">
          <mxGeometry x="779.46" y="444" width="187.08" height="48" as="geometry" />
        </mxCell>
        <mxCell id="Wi8p2_mBLNVyFIhDoAQK-23" value="&lt;font style=&quot;font-size: 18px&quot;&gt;无线接入点&lt;/font&gt;" style="text;html=1;strokeColor=none;fillColor=none;align=center;verticalAlign=middle;whiteSpace=wrap;rounded=0;fontSize=24;" parent="1" vertex="1">
          <mxGeometry x="552" y="177" width="142" height="39" as="geometry" />
        </mxCell>
        <mxCell id="Wi8p2_mBLNVyFIhDoAQK-24" value="&lt;font style=&quot;font-size: 25px&quot;&gt;家用路由器&lt;/font&gt;" style="text;html=1;strokeColor=none;fillColor=none;align=center;verticalAlign=middle;whiteSpace=wrap;rounded=0;fontSize=30;" parent="1" vertex="1">
          <mxGeometry x="272" y="13" width="134" height="14" as="geometry" />
        </mxCell>
      </root>
    </mxGraphModel>
  </diagram>
</mxfile>
